Coordinates
version=1
nRows=17
nColumns=24
inDegrees=yes

Units are S.I. units (second, meters, Newtons, ...)
Angles are in degrees.

endheader
time	pelvis_tilt	pelvis_list	pelvis_rotation	pelvis_tx	pelvis_ty	pelvis_tz	hip_flexion_r	hip_adduction_r	hip_rotation_r	knee_angle_r	ankle_angle_r	subtalar_angle_r	mtp_angle_r	hip_flexion_l	hip_adduction_l	hip_rotation_l	knee_angle_l	ankle_angle_l	subtalar_angle_l	mtp_angle_l	lumbar_extension	lumbar_bending	lumbar_rotation
      5.29500000	     16.31380883	      0.56129529	     -0.29429302	      1.65027331	      0.73874212	     -0.26868158	    -27.68162178	      0.51402064	     -2.48227712	    -27.86988927	     28.55988835	     29.82894739	      0.00000000	      9.73540890	      4.12628457	      4.59268612	    -12.29756019	     18.40318276	      5.87307264	      0.00000000	    -35.35384689	     -1.10604431	     11.69852211
      5.30000000	     16.35617230	      1.16490107	     -0.28558906	      1.65847099	      0.73884813	     -0.26939850	    -27.35438962	     -0.25155237	     -2.91037424	    -29.76875985	     27.04999927	     30.02764291	      0.00000000	      9.53306207	      4.90979784	      4.53019117	    -13.13530012	     17.74469827	      5.15500130	      0.00000000	    -35.21903887	     -1.67175813	     11.45659152
      5.30500000	     16.40044749	      1.76155454	     -0.26238478	      1.66662590	      0.73900816	     -0.27011919	    -26.95098985	     -1.01718690	     -3.34402227	    -31.75777674	     25.26771658	     30.17324513	      0.00000000	      9.32083689	      5.67698493	      4.51320072	    -13.97521425	     17.08140911	      4.37003766	      0.00000000	    -35.10043622	     -2.22419471	     11.18996072
      5.31000000	     16.45119880	      2.35947525	     -0.23156030	      1.67471861	      0.73920981	     -0.27083417	    -26.48005209	     -1.79047435	     -3.77660310	    -33.81922913	     23.26503304	     30.21069079	      0.00000000	      9.10983269	      6.44010783	      4.53042979	    -14.84457469	     16.45699846	      3.52747495	      0.00000000	    -35.00576860	     -2.78247590	     10.94040338
      5.31500000	     16.49812966	      2.95366317	     -0.20578021	      1.68272842	      0.73945763	     -0.27151174	    -25.92012664	     -2.56602335	     -4.16854343	    -35.95882837	     21.05002417	     30.08202457	      0.00000000	      8.89126278	      7.18226601	      4.54207201	    -15.68616810	     15.84716271	      2.74103832	      0.00000000	    -34.92971942	     -3.34234384	     10.67939806
      5.32000000	     16.54142499	      3.54474982	     -0.19061544	      1.69065027	      0.73973856	     -0.27216542	    -25.27338654	     -3.35044624	     -4.52058322	    -38.16122523	     18.65902579	     29.78393764	      0.00000000	      8.66665525	      7.91176038	      4.56468634	    -16.50344873	     15.29337451	      1.98928955	      0.00000000	    -34.87197840	     -3.90540783	     10.42442448
      5.32500000	     16.58041477	      4.12629120	     -0.18615856	      1.69847650	      0.74004861	     -0.27277493	    -24.54074493	     -4.13408885	     -4.83157428	    -40.40944814	     16.13744917	     29.29726999	      0.00000000	      8.42643423	      8.61965798	      4.59439089	    -17.27178849	     14.83183459	      1.30322701	      0.00000000	    -34.83308220	     -4.46648926	     10.17002892
      5.33000000	     16.61187224	      4.71213330	     -0.19619926	      1.70621211	      0.74038071	     -0.27334899	    -23.73278358	     -4.92826819	     -5.08060365	    -42.66555416	     13.53433881	     28.62251263	      0.00000000	      8.18375962	      9.32670424	      4.65387308	    -18.01580260	     14.46210296	      0.69461455	      0.00000000	    -34.80708403	     -5.04441104	      9.93921134
      5.33500000	     16.64000868	      5.28972743	     -0.22349843	      1.71384311	      0.74073212	     -0.27387448	    -22.85126155	     -5.72139231	     -5.27847625	    -44.92488873	     10.94576326	     27.74958361	      0.00000000	      7.92317392	     10.01673236	      4.70003741	    -18.70644369	     14.19357935	      0.18532708	      0.00000000	    -34.80111980	     -5.62326458	      9.71721949
      5.34000000	     16.66949737	      5.86525767	     -0.26455069	      1.72136941	      0.74109988	     -0.27435477	    -21.91215716	     -6.51487118	     -5.42660144	    -47.16409020	      8.44998612	     26.68706969	      0.00000000	      7.64399180	     10.69777160	      4.71921600	    -19.35308512	     14.02455446	     -0.23037215	      0.00000000	    -34.82050566	     -6.20767194	      9.49540788
      5.34500000	     16.68293824	      6.43580759	     -0.32335570	      1.72881020	      0.74146853	     -0.27478827	    -20.90111807	     -7.30200475	     -5.50153509	    -49.36870572	      6.10964970	     25.47746727	      0.00000000	      7.34630380	     11.37377568	      4.77574964	    -19.92455354	     13.98308881	     -0.57935345	      0.00000000	    -34.84036149	     -6.79921120	      9.28660444
      5.35000000	     16.67683306	      6.99264232	     -0.39746822	      1.73615949	      0.74183575	     -0.27517391	    -19.81973873	     -8.06849863	     -5.50467144	    -51.52525227	      4.01710150	     24.13234310	      0.00000000	      7.03644132	     12.03638307	      4.85872969	    -20.42615803	     14.04812665	     -0.86664309	      0.00000000	    -34.85644633	     -7.38656891	      9.10406312
      5.35500000	     16.66772328	      7.53903534	     -0.47779126	      1.74342510	      0.74221638	     -0.27551848	    -18.69711014	     -8.81520830	     -5.45693083	    -53.61738418	      2.21584203	     22.70262676	      0.00000000	      6.69511956	     12.68574862	      4.93511510	    -20.85669840	     14.21608347	     -1.06572721	      0.00000000	    -34.88675271	     -7.96784974	      8.92390155
      5.36000000	     16.67630104	      8.08589012	     -0.56071779	      1.75061606	      0.74263588	     -0.27579805	    -17.56884801	     -9.53915676	     -5.35484192	    -55.62717095	      0.76514955	     21.20972270	      0.00000000	      6.29490106	     13.32892592	      4.98083885	    -21.20628082	     14.46371728	     -1.19096049	      0.00000000	    -34.95657708	     -8.55054524	      8.68390615
      5.36500000	     16.65154145	      8.59403665	     -0.65090937	      1.75772836	      0.74304839	     -0.27604107	    -16.36508891	    -10.20937495	     -5.19075415	    -57.56861576	     -0.31905718	     19.65842578	      0.00000000	      5.89053277	     13.93380319	      5.06440317	    -21.48005452	     14.79876807	     -1.28147004	      0.00000000	    -35.00125578	     -9.10361740	      8.51170922
      5.37000000	     16.62785264	      9.08214336	     -0.73281254	      1.76477648	      0.74349058	     -0.27625540	    -15.14299732	    -10.84016316	     -4.99658512	    -59.41823394	     -1.03557199	     18.12105265	      0.00000000	      5.44139944	     14.51444700	      5.14821745	    -21.67289130	     15.19721228	     -1.30561927	      0.00000000	    -35.06069736	     -9.63304921	      8.33056089
      5.37500000	     16.65749107	      9.59050174	     -0.78781088	      1.77179267	      0.74402517	     -0.27643872	    -13.98623776	    -11.47938115	     -4.84415862	    -61.15391986	     -1.36966888	     16.63479648	      0.00000000	      4.87289123	     15.10868216	      5.24907760	    -21.75871897	     15.59802922	     -1.23617847	      0.00000000	    -35.19589024	    -10.17050355	      8.07468433
